inDegrees=no
num_controls=7
num_derivatives=13
num_iterations=153
num_multipliers=7
num_parameters=0
num_slacks=7
num_states=26
objective=5.325582
objective_accelerations=0.448680
objective_balance=0.014893
objective_effort=0.384097
objective_height=4.384755
objective_ligament=0.093157
solver_duration=1343.654088
status=Solve_Succeeded
success=true
DataType=double
version=3
OpenSimVersion=4.4-2022-07-23-0e9fedc
endheader
time	/jointset/ground_pelvis/pelvis_tilt/value	/jointset/ground_pelvis/pelvis_tx/value	/jointset/ground_pelvis/pelvis_ty/value	/jointset/hip_r/hip_flexion_r/value	/jointset/hip_r/hip_adduction_r/value	/jointset/hip_r/hip_rotation_r/value	/jointset/back/lumbar_extension/value	/jointset/patellofemoral_r/patellar_flexion_r/value	/jointset/knee_r/knee_flexion_r/value	/jointset/knee_r/knee_adduction_r/value	/jointset/knee_r/knee_rotation_r/value	/jointset/ankle_r/ankle_angle_r/value	/jointset/subtalar_r/subtalar_angle_r/value	/jointset/ground_pelvis/pelvis_tilt/speed	/jointset/ground_pelvis/pelvis_tx/speed	/jointset/ground_pelvis/pelvis_ty/speed	/jointset/hip_r/hip_flexion_r/speed	/jointset/hip_r/hip_adduction_r/speed	/jointset/hip_r/hip_rotation_r/speed	/jointset/back/lumbar_extension/speed	/jointset/patellofemoral_r/patellar_flexion_r/speed	/jointset/knee_r/knee_flexion_r/speed	/jointset/knee_r/knee_adduction_r/speed	/jointset/knee_r/knee_rotation_r/speed	/jointset/ankle_r/ankle_angle_r/speed	/jointset/subtalar_r/subtalar_angle_r/speed	/forceset/tau_hip_flexion_r	/forceset/tau_hip_adduction_r	/forceset/tau_hip_rotation_r	/forceset/tau_knee_flexion_r	/forceset/tau_ankle_angle_r	/forceset/tau_subtalar_angle_r	/forceset/tau_lumbar_extension	lambda_cid13_p0	lambda_cid14_p0	lambda_cid14_p1	lambda_cid14_p2	lambda_cid14_p3	lambda_cid14_p4	lambda_cid14_p5	/jointset/ground_pelvis/pelvis_tilt/accel	/jointset/ground_pelvis/pelvis_tx/accel	/jointset/ground_pelvis/pelvis_ty/accel	/jointset/hip_r/hip_flexion_r/accel	/jointset/hip_r/hip_adduction_r/accel	/jointset/hip_r/hip_rotation_r/accel	/jointset/back/lumbar_extension/accel	/jointset/patellofemoral_r/patellar_flexion_r/accel	/jointset/knee_r/knee_flexion_r/accel	/jointset/knee_r/knee_adduction_r/accel	/jointset/knee_r/knee_rotation_r/accel	/jointset/ankle_r/ankle_angle_r/accel	/jointset/subtalar_r/subtalar_angle_r/accel	gamma_cid13_p0	gamma_cid14_p0	gamma_cid14_p1	gamma_cid14_p2	gamma_cid14_p3	gamma_cid14_p4	gamma_cid14_p5
0.5	-0.09196831458802458	0.04577154969811529	0.8338680471065781	0.7587646297509	-0.2145024780947548	-0.1560997103833663	-0.6322923390555683	0.8627398270135536	0.8627398270135458	-0.06105955079901089	0.1745284970852608	0.2896057244643539	0.1500941573184045	-0.2517675888856081	-0.1720837091200353	-0.3928665928153182	1.516724912868278	-0.02066803676360588	0.1334920408512118	-0.7437654548137592	1.690584598203229	1.690584598203275	-0.4261639092630932	2.895461715172187e-05	0.5273008161810128	0.1848136825075686	-0.1679394951082206	0.006493355910642516	0.01550019274281004	-0.2737324846130473	-0.01597528796390046	0.002542229664581398	0.2211465267628956	-13.47624906477243	-47.68606020079643	-5.163299218401384	-1.133147620799396	-0.8153774471159786	-644.8902480736034	65.26457547648562	0.1733364018238589	0.4361234190217919	-0.3304643714167668	-1.043177179798372	-0.2004001491474315	-0.6028153527251613	1.551700271821538	-1.197285398749855	-1.197285398749874	0.343905051664358	0.0024130691178073	-0.459622981219918	-0.3007060113568802	-7.069904048303002e-08	-9.50010811799816e-08	1.237442076891878e-07	-1.183808398521382e-06	3.484972325961709e-08	-1.56755703148579e-07	3.120336202323723e-07
0.51	-0.09447683347108166	0.04407268300400731	0.8299237191124118	0.7738774811016782	-0.2147197948041286	-0.1547932288701276	-0.6396515420067352	0.8795836513363209	0.8795836513363063	-0.06530110745200943	0.1745288685232837	0.2948547537829732	0.1519257470172985	-0.2498911576512028	-0.1676744882912866	-0.395912139033699	1.505636353158306	-0.02278961012458013	0.1278379349485056	-0.7279833311853842	1.677953553038793	1.677953553038841	-0.4220847958217621	3.807075641552327e-05	0.522428475541173	0.181466405895038	-0.1734392393445301	0.007623536719278273	0.01581271851835602	-0.2775577721457508	-0.01765041863803013	0.002994348404032597	0.2264032852246689	-12.61287448903476	-48.45998916830334	-5.251392598364805	-0.9489786578371984	-0.6302871309584241	-648.7431372938403	65.41494343455389	0.2015393850222122	0.4456001065519378	-0.2786016952545691	-1.173060881401811	-0.2173670925282263	-0.5418292721496019	1.605239043535253	-1.330005888323495	-1.330005888323189	0.4493028321374565	-0.001165640974596	-0.5125323808693406	-0.3575470140012009	-6.951170688244615e-08	-7.043690254215424e-08	2.930028849917987e-07	-9.553215649275103e-07	2.653506080526648e-09	-1.320908410840193e-07	3.804003828081453e-07
0.52	-0.09696523946164375	0.04241836425653682	0.8259515352664206	0.7888731737523921	-0.2149581934797063	-0.1535423126285341	-0.6468501695945811	0.896294366844833	0.896294366844821	-0.06949999530224445	0.1745290658172948	0.3000527611400932	0.153722702244507	-0.2477450103858564	-0.1631741197925378	-0.3984377631802996	1.49329317285613	-0.02488443000378623	0.1223789865215474	-0.7116503821494135	1.663962835353036	1.663962835353087	-0.4176301487096323	-5.874196529412832e-06	0.5170964238811995	0.1778867881705051	-0.1789389835808421	0.008753717527916538	0.01612524429390694	-0.2813830596784536	-0.01932554931215777	0.003446467143491152	0.2316600436864388	-11.75076776408214	-49.23618081287573	-5.336303597598519	-0.7694048027088418	-0.4635981643296537	-652.6305173734523	65.62487302542405	0.2272796080121049	0.4543529530217624	-0.2264799570607192	-1.294101298239062	-0.1950494527938375	-0.5637838575756622	1.661865353340679	-1.469219903013968	-1.469219903013961	0.4190117858240823	-0.008199149323795351	-0.5515651852467051	-0.3471742337574278	-5.65689324015712e-08	-7.248884242222151e-09	6.30706544051107e-07	-3.280604558898005e-07	-6.755187114058211e-08	-7.574518019217644e-08	5.012447933335954e-07
0.53	-0.09943096708023788	0.0408094819860046	0.8219567263061238	0.8037393503825615	-0.2152169874101004	-0.152347071022278	-0.6538827559263365	0.9128581813211752	0.9128581813211801	-0.07365470805178283	0.1745294235742323	0.3051953117034848	0.155483422328713	-0.245361983700273	-0.1585884357962973	-0.4004330548132612	1.479737623568031	-0.02686864446895804	0.1167196690840135	-0.6947859675879949	1.648578895937601	1.648578895937654	-0.4132367669140867	6.071669739309627e-05	0.5113427584692233	0.1742199133546129	-0.1841767461003344	0.009490620260417856	0.01647948061013075	-0.2856174591922119	-0.02056747162833176	0.003960355536410891	0.2367223280250588	-10.89233775758565	-49.87297380929667	-5.366032446779313	-0.6031383426453391	-0.3891712729373514	-656.598992874674	66.02125874920505	0.24959608989763	0.4627400149758396	-0.1724168864592858	-1.416957998606384	-0.1992021932134409	-0.5595162365130979	1.710866999643465	-1.606145603206164	-1.60614560320574	0.4609541429564556	0.01160607164846014	-0.5979325223496459	-0.3819146381911553	-4.975585400590898e-08	3.077304092206369e-08	8.453423213146794e-07	3.615228926081229e-08	-1.107579088612883e-07	-4.351632907623562e-08	5.902675928710942e-07
0.54	-0.1018717080537665	0.03924686933384481	0.8179446918054882	0.8184638362689444	-0.2154954424351158	-0.1512069247003267	-0.6607442706140582	0.9292615234748791	0.9292615234749091	-0.0777631964300621	0.174529950812695	0.3102781925521208	0.1572063795582226	-0.2427476813720367	-0.1539201961180519	-0.4018828712480195	1.46495502409949	-0.02881664892751645	0.111359929659646	-0.6774360533425307	1.631868370826252	1.631868370826307	-0.4083852744570767	2.80221072426912e-05	0.505162480930184	0.1703342172312798	-0.1894145086198305	0.01022752299293143	0.01683371692634903	-0.2898518587059727	-0.02180939394450226	0.004474243929350992	0.2417846123636739	-10.03956890985457	-50.51258419551333	-5.392342914222127	-0.4418839708516422	-0.3285631776686874	-660.6168887352351	66.44450074821165	0.2735347365426953	0.4708640894226886	-0.1173849174200563	-1.539511334327478	-0.1878074514711869	-0.5038682549424413	1.758965290149855	-1.734537042196868	-1.734537042196871	0.5106339181169539	-0.02805624613826534	-0.6368876106593522	-0.3909384952457008	-4.97245670236737e-08	4.095162900010232e-08	9.238178889319039e-07	1.093328020256971e-07	-1.240923369219742e-07	-3.796990579746335e-08	6.440835036559659e-07
0.55	-0.1042851462720508	0.03773128226062043	0.8139209041152553	0.8330344702264926	-0.2157931377109498	-0.1501194529941318	-0.6674300233713037	0.9454911839594351	0.9454911839594324	-0.08182140532231415	0.1745300486633422	0.3152971768199564	0.1588894772512531	-0.2399016952787389	-0.1491898165294127	-0.4027823272826194	1.448977788710515	-0.03071176940978928	0.1061626295741339	-0.6596479073759144	1.613851994501913	1.613851994501967	-0.403204450287144	-9.844509988911872e-06	0.4985672193616001	0.1662558029885441	-0.194567409031987	0.01107239277204614	0.01713498356836864	-0.2939668457254629	-0.02324047424444634	0.004909217765141864	0.2467247699293318	-9.194198989313158	-51.22068563246678	-5.467394160776612	-0.2700318696853012	-0.1520337624336938	-664.5898663465066	66.75891657371858	0.2958757039847835	0.4752089199953614	-0.0623820080388245	-1.655920023846681	-0.1886917355028771	-0.5234830807516665	1.798727859563463	-1.866937723515569	-1.866937723515847	0.529743315632871	0.008198692701418389	-0.6809484507355672	-0.4205515392433062	-4.797140336200816e-08	5.044580705009068e-08	9.794718954354949e-07	1.755385866607683e-07	-1.343864589916162e-07	-3.412092555353628e-08	6.88055564263506e-07
0.5600000000000001	-0.1066689755977528	0.03626321578856453	0.809890890652365	0.8474395137536147	-0.2161094496693877	-0.1490831187278711	-0.6739358969469545	0.961534330721562	0.961534330721512	-0.08582621864302881	0.1745297379603827	0.3202481878679507	0.1605309390717649	-0.2368259028549767	-0.1444160758843598	-0.4031280257795521	1.431836938014976	-0.03253998544796088	0.1011324416727807	-0.6414602170234553	1.594565626339045	1.594565626339097	-0.397706160149155	-5.368863853753646e-05	0.4915678369619098	0.1620070427275764	-0.1997203094441484	0.01191726255115349	0.01743625021023834	-0.2980818327449699	-0.02467155454439073	0.005344191600924091	0.2516649274949854	-8.375667204013522	-51.93077547254435	-5.537944472050863	-0.1044352347555311	0.008420465068646724	-668.6028339614461	67.09684886108739	0.3194960026356095	0.4795363007053843	-0.006633409886627692	-1.772234395640211	-0.1744265626510454	-0.4704458181108547	1.838874167318403	-1.988535409902896	-1.988535409902904	0.5741271117282516	-0.02925174840135084	-0.7177117768806784	-0.4250076988922676	-4.415198768502636e-08	5.911869306641874e-08	1.007740028602726e-06	2.333746975400633e-07	-1.410322138720055e-07	-3.230887695142339e-08	7.202150046582488e-07
0.5700000000000001	-0.1090209509514461	0.03484307322426195	0.8058602241525202	0.8616673715364649	-0.2164437073384745	-0.1480963179677594	-0.6802580108441223	0.9773782577836705	0.977378257783557	-0.08977449249574176	0.1745290540692411	0.3251271992335984	0.1621290497616293	-0.2335355274945013	-0.1396076250941394	-0.4029095235228495	1.413542933339507	-0.03430269808301875	0.0962722318922319	-0.6229071184720343	1.574010600330213	1.574010600330245	-0.3918749579611237	-8.456719420861755e-05	0.484168809270163	0.157581382685199	-0.2046566726448398	0.01266576168862234	0.01772010113813011	-0.3024335111652752	-0.02587018338707343	0.005728473702781881	0.256419972360153	-7.601636975832331	-52.57397575292276	-5.622034190043995	0.06701503646642464	0.1543208246743158	-672.6484069614316	67.44175992859481	0.3388620622431657	0.4821922921259051	0.05044838662137013	-1.886727024826649	-0.1757730156630171	-0.4871748598619596	1.871844289803223	-2.12035566082644	-2.120355660829381	0.5987981512280999	0.009858904656159281	-0.7608726799968285	-0.4562102346867562	-3.989287808946971e-08	6.504515807052082e-08	1.001860082518164e-06	2.687791695899284e-07	-1.433185024611951e-07	-2.885582529357444e-08	7.291352839677168e-07
0.58	-0.1113390117996399	0.03347115373265055	0.8018346139438773	0.8757065405682933	-0.2167953080142633	-0.1471567925658038	-0.6863929304376265	0.9930103606927987	0.9930103606926151	-0.09366221805080663	0.1745280343551733	0.3299302454393917	0.1636819308355145	-0.230043001754437	-0.1347714613461241	-0.4021167675392044	1.394099187810982	-0.03600858678728699	0.0916773700382873	-0.6040213562906389	1.552200795743259	1.552200795743272	-0.3855965006175985	-0.0001208531976391105	0.4763748049914105	0.1529611195317757	-0.2095930358455232	0.01341426082614609	0.01800395206590887	-0.306785189585599	-0.02706881222974252	0.006112755804735776	0.2611750172253232	-6.872206495179987	-53.21834236315434	-5.700587487983512	0.2310266313487453	0.280774419668953	-676.727169126821	67.80722059030934	0.3599260785534139	0.4850788922643279	0.108217335501874	-2.002182566251438	-0.1630617764932291	-0.4173762327901993	1.90540689331327	-2.239491125527175	-2.239491125527112	0.6635781428270632	-0.03033323795294275	-0.7967070942818654	-0.4639283211016167	-3.506114385576913e-08	6.739488873311937e-08	9.515082192684774e-07	2.749703445596065e-07	-1.399273465781249e-07	-2.326565337709258e-08	7.077906093056658e-07
